<mxfile host="app.diagrams.net" modified="2021-11-03T16:05:55.305Z" agent="5.0 (Windows NT 10.0; Win64; x64) AppleWebKit/537.36 (KHTML, like Gecko) Chrome/95.0.4638.69 Safari/537.36" etag="fv0C3vLpQivP8EzSPY3J" version="15.6.8" type="github">
  <diagram id="B_5vKAaHTdUYBzOmlH8M" name="Page-1">
    <mxGraphModel dx="1550" dy="779" grid="1" gridSize="10" guides="1" tooltips="1" connect="1" arrows="1" fold="1" page="1" pageScale="1" pageWidth="827" pageHeight="1169" background="#B0E3E6" math="0" shadow="0">
      <root>
        <mxCell id="0" />
        <mxCell id="1" parent="0" />
        <mxCell id="nAgoMhvz8CJJsjEUB661-20" value="" style="group" vertex="1" connectable="0" parent="1">
          <mxGeometry x="80" y="180" width="690" height="190" as="geometry" />
        </mxCell>
        <mxCell id="nAgoMhvz8CJJsjEUB661-1" value="&lt;font style=&quot;font-size: 14px&quot;&gt;filter&lt;/font&gt;" style="rounded=0;whiteSpace=wrap;html=1;sketch=1;fillColor=#F08E81;strokeColor=#FFFFFF;fontColor=#1A1A1A;" vertex="1" parent="nAgoMhvz8CJJsjEUB661-20">
          <mxGeometry y="43.84615384615385" width="90.98901098901099" height="43.84615384615385" as="geometry" />
        </mxCell>
        <mxCell id="nAgoMhvz8CJJsjEUB661-2" value="&lt;font style=&quot;font-size: 14px&quot;&gt;filter&lt;/font&gt;" style="rounded=0;whiteSpace=wrap;html=1;sketch=1;fillColor=#F08E81;strokeColor=#FFFFFF;fontColor=#1A1A1A;" vertex="1" parent="nAgoMhvz8CJJsjEUB661-20">
          <mxGeometry x="90.98901098901099" y="43.84615384615385" width="90.98901098901099" height="43.84615384615385" as="geometry" />
        </mxCell>
        <mxCell id="nAgoMhvz8CJJsjEUB661-3" value="&lt;font style=&quot;font-size: 14px&quot;&gt;filter&lt;/font&gt;" style="rounded=0;whiteSpace=wrap;html=1;sketch=1;fillColor=#F08E81;strokeColor=#FFFFFF;fontColor=#1A1A1A;" vertex="1" parent="nAgoMhvz8CJJsjEUB661-20">
          <mxGeometry x="181.97802197802199" y="43.84615384615385" width="90.98901098901099" height="43.84615384615385" as="geometry" />
        </mxCell>
        <mxCell id="nAgoMhvz8CJJsjEUB661-17" style="edgeStyle=orthogonalEdgeStyle;curved=1;rounded=1;sketch=1;orthogonalLoop=1;jettySize=auto;html=1;entryX=0.5;entryY=1;entryDx=0;entryDy=0;fontSize=18;fontColor=#1A1A1A;strokeColor=#3700CC;exitX=0.5;exitY=1;exitDx=0;exitDy=0;fillColor=#6a00ff;" edge="1" parent="nAgoMhvz8CJJsjEUB661-20" source="nAgoMhvz8CJJsjEUB661-4" target="nAgoMhvz8CJJsjEUB661-1">
          <mxGeometry relative="1" as="geometry">
            <Array as="points">
              <mxPoint x="318.4615384615385" y="190" />
              <mxPoint x="45.494505494505496" y="190" />
            </Array>
          </mxGeometry>
        </mxCell>
        <mxCell id="nAgoMhvz8CJJsjEUB661-4" value="&lt;font style=&quot;font-size: 14px&quot;&gt;filter_offsets_&lt;/font&gt;&lt;br&gt;&lt;div style=&quot;color: rgb(36 , 41 , 46) ; background-color: rgb(255 , 255 , 255) ; font-family: &amp;#34;consolas&amp;#34; , &amp;#34;courier new&amp;#34; , monospace ; font-weight: normal ; font-size: 14px ; line-height: 19px&quot;&gt;&lt;div&gt;&lt;/div&gt;&lt;/div&gt;" style="rounded=0;whiteSpace=wrap;html=1;sketch=1;fillColor=#F08E81;strokeColor=#FFFFFF;fontColor=#1A1A1A;" vertex="1" parent="nAgoMhvz8CJJsjEUB661-20">
          <mxGeometry x="272.967032967033" y="43.84615384615385" width="90.98901098901099" height="43.84615384615385" as="geometry" />
        </mxCell>
        <mxCell id="nAgoMhvz8CJJsjEUB661-18" style="edgeStyle=orthogonalEdgeStyle;curved=1;rounded=1;sketch=1;orthogonalLoop=1;jettySize=auto;html=1;entryX=0.5;entryY=1;entryDx=0;entryDy=0;fontSize=18;fontColor=#1A1A1A;strokeColor=#A50040;exitX=0.5;exitY=1;exitDx=0;exitDy=0;fillColor=#d80073;" edge="1" parent="nAgoMhvz8CJJsjEUB661-20" source="nAgoMhvz8CJJsjEUB661-12" target="nAgoMhvz8CJJsjEUB661-2">
          <mxGeometry relative="1" as="geometry">
            <Array as="points">
              <mxPoint x="409.4505494505495" y="153.46153846153845" />
              <mxPoint x="136.4835164835165" y="153.46153846153845" />
            </Array>
          </mxGeometry>
        </mxCell>
        <mxCell id="nAgoMhvz8CJJsjEUB661-12" value="&lt;font style=&quot;font-size: 14px&quot;&gt;filter_offsets_&lt;/font&gt;&lt;br&gt;&lt;div style=&quot;color: rgb(36 , 41 , 46) ; background-color: rgb(255 , 255 , 255) ; font-family: &amp;#34;consolas&amp;#34; , &amp;#34;courier new&amp;#34; , monospace ; font-weight: normal ; font-size: 14px ; line-height: 19px&quot;&gt;&lt;div&gt;&lt;/div&gt;&lt;/div&gt;" style="rounded=0;whiteSpace=wrap;html=1;sketch=1;fillColor=#F08E81;strokeColor=#FFFFFF;fontColor=#1A1A1A;" vertex="1" parent="nAgoMhvz8CJJsjEUB661-20">
          <mxGeometry x="363.95604395604397" y="43.84615384615385" width="90.98901098901099" height="43.84615384615385" as="geometry" />
        </mxCell>
        <mxCell id="nAgoMhvz8CJJsjEUB661-19" style="edgeStyle=orthogonalEdgeStyle;curved=1;rounded=1;sketch=1;orthogonalLoop=1;jettySize=auto;html=1;entryX=0.5;entryY=1;entryDx=0;entryDy=0;fontSize=18;fontColor=#1A1A1A;strokeColor=#005700;exitX=0.5;exitY=1;exitDx=0;exitDy=0;fillColor=#008a00;" edge="1" parent="nAgoMhvz8CJJsjEUB661-20" source="nAgoMhvz8CJJsjEUB661-13" target="nAgoMhvz8CJJsjEUB661-3">
          <mxGeometry relative="1" as="geometry">
            <Array as="points">
              <mxPoint x="500.4395604395605" y="124.23076923076923" />
              <mxPoint x="227.47252747252747" y="124.23076923076923" />
            </Array>
          </mxGeometry>
        </mxCell>
        <mxCell id="nAgoMhvz8CJJsjEUB661-13" value="&lt;font style=&quot;font-size: 14px&quot;&gt;filter_offsets_&lt;/font&gt;&lt;br&gt;&lt;div style=&quot;color: rgb(36 , 41 , 46) ; background-color: rgb(255 , 255 , 255) ; font-family: &amp;#34;consolas&amp;#34; , &amp;#34;courier new&amp;#34; , monospace ; font-weight: normal ; font-size: 14px ; line-height: 19px&quot;&gt;&lt;div&gt;&lt;/div&gt;&lt;/div&gt;" style="rounded=0;whiteSpace=wrap;html=1;sketch=1;fillColor=#F08E81;strokeColor=#FFFFFF;fontColor=#1A1A1A;" vertex="1" parent="nAgoMhvz8CJJsjEUB661-20">
          <mxGeometry x="454.94505494505495" y="43.84615384615385" width="90.98901098901099" height="43.84615384615385" as="geometry" />
        </mxCell>
        <mxCell id="nAgoMhvz8CJJsjEUB661-16" style="edgeStyle=orthogonalEdgeStyle;curved=1;rounded=1;sketch=1;orthogonalLoop=1;jettySize=auto;html=1;fontSize=18;fontColor=#1A1A1A;strokeColor=#182E3E;exitX=0.5;exitY=0;exitDx=0;exitDy=0;entryX=0;entryY=0;entryDx=0;entryDy=0;entryPerimeter=0;" edge="1" parent="nAgoMhvz8CJJsjEUB661-20" source="nAgoMhvz8CJJsjEUB661-14" target="nAgoMhvz8CJJsjEUB661-4">
          <mxGeometry relative="1" as="geometry">
            <mxPoint x="272.967032967033" y="36.53846153846153" as="targetPoint" />
            <Array as="points">
              <mxPoint x="591.4285714285714" />
              <mxPoint x="272.967032967033" />
            </Array>
          </mxGeometry>
        </mxCell>
        <mxCell id="nAgoMhvz8CJJsjEUB661-14" value="&lt;font style=&quot;font-size: 14px&quot;&gt;size&lt;/font&gt;&lt;br&gt;&lt;div style=&quot;color: rgb(36 , 41 , 46) ; background-color: rgb(255 , 255 , 255) ; font-family: &amp;#34;consolas&amp;#34; , &amp;#34;courier new&amp;#34; , monospace ; font-weight: normal ; font-size: 14px ; line-height: 19px&quot;&gt;&lt;div&gt;&lt;/div&gt;&lt;/div&gt;" style="rounded=0;whiteSpace=wrap;html=1;sketch=1;fillColor=#F08E81;strokeColor=#FFFFFF;fontColor=#1A1A1A;" vertex="1" parent="nAgoMhvz8CJJsjEUB661-20">
          <mxGeometry x="545.934065934066" y="43.84615384615385" width="90.98901098901099" height="43.84615384615385" as="geometry" />
        </mxCell>
        <mxCell id="nAgoMhvz8CJJsjEUB661-15" value="&lt;font style=&quot;font-size: 14px&quot;&gt;BaseLg&lt;/font&gt;" style="rounded=0;whiteSpace=wrap;html=1;sketch=1;fillColor=#F08E81;strokeColor=#FFFFFF;fontColor=#1A1A1A;" vertex="1" parent="nAgoMhvz8CJJsjEUB661-20">
          <mxGeometry x="636.923076923077" y="43.84615384615385" width="53.07692307692308" height="43.84615384615385" as="geometry" />
        </mxCell>
      </root>
    </mxGraphModel>
  </diagram>
</mxfile>
